<?xml version="1.0" encoding="UTF-8"?>
<svg width="30px" height="30px" viewBox="0 0 30 30" version="1.1" xmlns="http://www.w3.org/2000/svg" xmlns:xlink="http://www.w3.org/1999/xlink">
    <title>Braille</title>
    <defs>
        <path d="M6.25000003,21.8750001 C7.28750003,21.8750001 8.12500003,21.0375001 8.12500003,20.0000001 C8.12500003,18.9625001 7.28750003,18.1250001 6.25000003,18.1250001 C5.21250002,18.1250001 4.37500002,18.9625001 4.37500002,20.0000001 C4.37500002,21.0375001 5.21250002,21.8750001 6.25000003,21.8750001 L6.25000003,21.8750001 Z M11.25,16.2500001 C11.9375,16.2500001 12.5,15.6875001 12.5,15.0000001 C12.5,14.3125001 11.9375,13.7500001 11.25,13.7500001 C10.5625,13.7500001 10,14.3125001 10,15.0000001 C10,15.6875001 10.5625,16.2500001 11.25,16.2500001 L11.25,16.2500001 Z M11.25,11.25 C11.9375,11.25 12.5,10.6875 12.5,10 C12.5,9.31250004 11.9375,8.75000004 11.25,8.75000004 C10.5625,8.75000004 10,9.31250004 10,10 C10,10.6875 10.5625,11.25 11.25,11.25 L11.25,11.25 Z M3.75000002,26.2500001 L26.25,26.2500001 L26.25,23.7500001 L3.75000002,23.7500001 L3.75000002,26.2500001 L3.75000002,26.2500001 Z M6.25000003,11.875 C7.28750003,11.875 8.12500003,11.0375 8.12500003,10 C8.12500003,8.96250004 7.28750003,8.12500003 6.25000003,8.12500003 C5.21250002,8.12500003 4.37500002,8.96250004 4.37500002,10 C4.37500002,11.0375 5.21250002,11.875 6.25000003,11.875 L6.25000003,11.875 Z M6.25000003,16.8750001 C7.28750003,16.8750001 8.12500003,16.0375001 8.12500003,15.0000001 C8.12500003,13.9625001 7.28750003,13.1250001 6.25000003,13.1250001 C5.21250002,13.1250001 4.37500002,13.9625001 4.37500002,15.0000001 C4.37500002,16.0375001 5.21250002,16.8750001 6.25000003,16.8750001 L6.25000003,16.8750001 Z M11.25,21.2500001 C11.9375,21.2500001 12.5,20.6875001 12.5,20.0000001 C12.5,19.3125001 11.9375,18.7500001 11.25,18.7500001 C10.5625,18.7500001 10,19.3125001 10,20.0000001 C10,20.6875001 10.5625,21.2500001 11.25,21.2500001 L11.25,21.2500001 Z M21.2500001,20.6250001 C21.6000001,20.6250001 21.8750001,20.3500001 21.8750001,20.0000001 C21.8750001,19.6500001 21.6000001,19.3750001 21.2500001,19.3750001 C20.9000001,19.3750001 20.6250001,19.6500001 20.6250001,20.0000001 C20.6250001,20.3500001 20.9000001,20.6250001 21.2500001,20.6250001 L21.2500001,20.6250001 Z M3.75000002,3.75000002 L3.75000002,6.25000002 L26.25,6.25000002 L26.25,3.75000002 L3.75000002,3.75000002 L3.75000002,3.75000002 Z M21.2500001,10.625 C21.6000001,10.625 21.8750001,10.35 21.8750001,10 C21.8750001,9.65000004 21.6000001,9.37500004 21.2500001,9.37500004 C20.9000001,9.37500004 20.6250001,9.65000004 20.6250001,10 C20.6250001,10.35 20.9000001,10.625 21.2500001,10.625 L21.2500001,10.625 Z M21.2500001,15.6250001 C21.6000001,15.6250001 21.8750001,15.3500001 21.8750001,15.0000001 C21.8750001,14.6500001 21.6000001,14.3750001 21.2500001,14.3750001 C20.9000001,14.3750001 20.6250001,14.6500001 20.6250001,15.0000001 C20.6250001,15.3500001 20.9000001,15.6250001 21.2500001,15.6250001 L21.2500001,15.6250001 Z M16.2500001,11.25 C16.9375001,11.25 17.5000001,10.6875 17.5000001,10 C17.5000001,9.31250004 16.9375001,8.75000004 16.2500001,8.75000004 C15.5625001,8.75000004 15.0000001,9.31250004 15.0000001,10 C15.0000001,10.6875 15.5625001,11.25 16.2500001,11.25 L16.2500001,11.25 Z M16.2500001,16.2500001 C16.9375001,16.2500001 17.5000001,15.6875001 17.5000001,15.0000001 C17.5000001,14.3125001 16.9375001,13.7500001 16.2500001,13.7500001 C15.5625001,13.7500001 15.0000001,14.3125001 15.0000001,15.0000001 C15.0000001,15.6875001 15.5625001,16.2500001 16.2500001,16.2500001 L16.2500001,16.2500001 Z M16.2500001,21.2500001 C16.9375001,21.2500001 17.5000001,20.6875001 17.5000001,20.0000001 C17.5000001,19.3125001 16.9375001,18.7500001 16.2500001,18.7500001 C15.5625001,18.7500001 15.0000001,19.3125001 15.0000001,20.0000001 C15.0000001,20.6875001 15.5625001,21.2500001 16.2500001,21.2500001 L16.2500001,21.2500001 Z" id="path-1"></path>
    </defs>
    <g id="Desktop" stroke="none" stroke-width="1" fill="none" fill-rule="evenodd">
        <g id="Accessibility-Hub_D_Tab-3" transform="translate(-760, -2857)">
            <g id="Group-6" transform="translate(120, 2151)">
                <g id="Alternate-formats" transform="translate(0, 562)">
                    <g id="Braille" transform="translate(610, 114)">
                        <g transform="translate(30, 30)">
                            <polygon id="Base" points="0 0 30.0000001 0 30.0000001 30.0000001 0 30.0000001"></polygon>
                            <mask id="mask-2" fill="white">
                                <use xlink:href="#path-1"></use>
                            </mask>
                            <g id="Icon" fill-rule="nonzero"></g>
                            <rect id="↳-🎨-Color" fill="#000000" mask="url(#mask-2)" x="6.24999785e-08" y="6.25000496e-08" width="30" height="30"></rect>
                        </g>
                    </g>
                </g>
            </g>
        </g>
    </g>
</svg>