<?xml version="1.0" encoding="UTF-8"?>
<svg width="24px" height="24px" viewBox="0 0 24 24" version="1.1" xmlns="http://www.w3.org/2000/svg" xmlns:xlink="http://www.w3.org/1999/xlink">
    <title>Icons/travel/plane Copy 4</title>
    <defs>
        <path d="M16.0000001,11 C17.6600001,11 18.9900001,9.66000004 18.9900001,8.00000002 C18.9900001,6.34000003 17.6600001,5.00000002 16.0000001,5.00000002 C14.3400001,5.00000002 13.0000001,6.34000003 13.0000001,8.00000002 C13.0000001,9.66000004 14.3400001,11 16.0000001,11 L16.0000001,11 Z M8.00000002,11 C9.66000004,11 10.99,9.66000004 10.99,8.00000002 C10.99,6.34000003 9.66000004,5.00000002 8.00000002,5.00000002 C6.34000003,5.00000002 5.00000002,6.34000003 5.00000002,8.00000002 C5.00000002,9.66000004 6.34000003,11 8.00000002,11 L8.00000002,11 Z M8,13.0000001 C5.67000002,13.0000001 1,14.1700001 1,16.5000001 L1,19.0000001 L15,19.0000001 L15,16.5000001 C15,14.1700001 10.33,13.0000001 8,13.0000001 L8,13.0000001 Z M16.0000001,13.0000001 C15.7100001,13.0000001 15.3800001,13.0200001 15.0300001,13.0500001 C16.1900001,13.8900001 17.0000001,15.0200001 17.0000001,16.5000001 L17.0000001,19.0000001 L23.0000001,19.0000001 L23.0000001,16.5000001 C23.0000001,14.1700001 18.3300001,13.0000001 16.0000001,13.0000001 L16.0000001,13.0000001 Z" id="path-1"></path>
    </defs>
    <g id="Desktop" stroke="none" stroke-width="1" fill="none" fill-rule="evenodd">
        <g id="Accessibility-Hub_D_Tab-3" transform="translate(-586, -1143)">
            <g id="Accessibility-plan-and-feedback-process-" transform="translate(0, 616)">
                <g id="Intro" transform="translate(120, 172)">
                    <g id="Content" transform="translate(466, 80)">
                        <g id="Icons/travel/plane-Copy-4" transform="translate(-0, 275)">
                            <polygon id="Base" points="0 0 24.0000001 0 24.0000001 24.0000001 0 24.0000001"></polygon>
                            <mask id="mask-2" fill="white">
                                <use xlink:href="#path-1"></use>
                            </mask>
                            <g id="Icon" fill-rule="nonzero"></g>
                            <rect id="↳-🎨-Color" fill="#000000" mask="url(#mask-2)" x="4.99999828e-08" y="4.9999926e-08" width="24" height="24"></rect>
                        </g>
                    </g>
                </g>
            </g>
        </g>
    </g>
</svg>