<?xml version="1.0" encoding="UTF-8"?>
<svg width="24px" height="24px" viewBox="0 0 24 24" version="1.1" xmlns="http://www.w3.org/2000/svg" xmlns:xlink="http://www.w3.org/1999/xlink">
    <title>Print</title>
    <defs>
        <path d="M6.62000003,10.79 C8.06000003,13.6200001 10.38,15.9300001 13.2100001,17.3800001 L15.4100001,15.1800001 C15.6800001,14.9100001 16.0800001,14.8200001 16.4300001,14.9400001 C17.5500001,15.3100001 18.7600001,15.5100001 20,15.5100001 C20.5500001,15.5100001 21,15.9600001 21,16.5100001 L21,20 C21,20.5500001 20.5500001,21 20,21 C10.61,21 3.00000001,13.3900001 3.00000001,4.00000001 C3.00000001,3.45000001 3.45000001,3.00000001 4.00000001,3.00000001 L7.50000001,3.00000001 C8.05000003,3.00000001 8.50000001,3.45000001 8.50000001,4.00000001 C8.50000001,5.25000002 8.70000004,6.45000003 9.07000004,7.57000003 C9.18000004,7.92000003 9.10000004,8.31000003 8.82000004,8.59000004 L6.62000003,10.79 L6.62000003,10.79 Z" id="path-1"></path>
    </defs>
    <g id="Desktop" stroke="none" stroke-width="1" fill="none" fill-rule="evenodd">
        <g id="Accessibility-Hub_D_Tab-2" transform="translate(-144, -1184)">
            <g id="Phone" transform="translate(120, 1160)">
                <g id="Print" transform="translate(24, 24)">
                    <polygon id="Base" points="3.55271368e-15 3.55271368e-15 24.0000001 3.55271368e-15 24.0000001 24.0000001 3.55271368e-15 24.0000001"></polygon>
                    <mask id="mask-2" fill="white">
                        <use xlink:href="#path-1"></use>
                    </mask>
                    <g id="Icon"></g>
                    <rect id="↳-🎨-Color" fill="#000000" mask="url(#mask-2)" x="4.99999864e-08" y="4.99999295e-08" width="24" height="24"></rect>
                </g>
            </g>
        </g>
    </g>
</svg>