<?xml version="1.0" encoding="UTF-8"?>
<svg width="30px" height="30px" viewBox="0 0 30 30" version="1.1" xmlns="http://www.w3.org/2000/svg" xmlns:xlink="http://www.w3.org/1999/xlink">
    <title>Print</title>
    <defs>
        <path d="M23.75,5.00000001 L18.5250001,5.00000001 C18.0000001,3.55000001 16.6250001,2.50000001 15.0000001,2.50000001 C13.3750001,2.50000001 12,3.55000001 11.475,5.00000001 L6.25000002,5.00000001 C4.87500002,5.00000001 3.75000002,6.12500003 3.75000002,7.50000001 L3.75000002,25 C3.75000002,26.3750001 4.87500002,27.5 6.25000002,27.5 L23.75,27.5 C25.1250001,27.5 26.25,26.3750001 26.25,25 L26.25,7.50000001 C26.25,6.12500003 25.1250001,5.00000001 23.75,5.00000001 L23.75,5.00000001 Z M15.0000001,5.00000002 C15.6875001,5.00000002 16.2500001,5.56250002 16.2500001,6.25000003 C16.2500001,6.93750003 15.6875001,7.50000002 15.0000001,7.50000002 C14.3125001,7.50000002 13.7500001,6.93750003 13.7500001,6.25000003 C13.7500001,5.56250002 14.3125001,5.00000002 15.0000001,5.00000002 L15.0000001,5.00000002 Z M17.5000001,22.5000001 L8.75000004,22.5000001 L8.75000004,20.0000001 L17.5000001,20.0000001 L17.5000001,22.5000001 L17.5000001,22.5000001 Z M21.25,17.5000001 L8.75000004,17.5000001 L8.75000004,15.0000001 L21.25,15.0000001 L21.25,17.5000001 L21.25,17.5000001 Z M21.25,12.5 L8.75000004,12.5 L8.75000004,10 L21.25,10 L21.25,12.5 L21.25,12.5 Z" id="path-1"></path>
    </defs>
    <g id="Desktop" stroke="none" stroke-width="1" fill="none" fill-rule="evenodd">
        <g id="Accessibility-Hub_D_Tab-3" transform="translate(-150, -2857)">
            <g id="Group-6" transform="translate(120, 2151)">
                <g id="Alternate-formats" transform="translate(0, 562)">
                    <g id="Print" transform="translate(0, 114)">
                        <g transform="translate(30, 30)">
                            <polygon id="Base" fill-rule="nonzero" points="0 0 30.0000001 0 30.0000001 30.0000001 0 30.0000001"></polygon>
                            <mask id="mask-2" fill="white">
                                <use xlink:href="#path-1"></use>
                            </mask>
                            <g id="Icon" fill-rule="nonzero"></g>
                            <rect id="↳-🎨-Color" fill="#000000" mask="url(#mask-2)" x="6.24999785e-08" y="6.24999785e-08" width="30" height="30"></rect>
                        </g>
                    </g>
                </g>
            </g>
        </g>
    </g>
</svg>