<?xml version="1.0" encoding="UTF-8"?>
<svg width="24px" height="24px" viewBox="0 0 24 24" version="1.1" xmlns="http://www.w3.org/2000/svg" xmlns:xlink="http://www.w3.org/1999/xlink">
    <title>Print</title>
    <defs>
        <path d="M21.0000001,8.00000003 L21.0000001,7.00000003 L18.0000001,9.00000003 L15.0000001,7.00000003 L15.0000001,8.00000003 L18.0000001,10 L21.0000001,8.00000003 L21.0000001,8.00000003 Z M22,3.00000001 L2,3.00000001 C0.900000004,3.00000001 0,3.90000002 0,5.00000001 L0,19 C0,20.1000001 0.900000004,21 2,21 L22,21 C23.1000001,21 23.9900001,20.1000001 23.9900001,19 L24,5.00000001 C24,3.90000002 23.1000001,3.00000001 22,3.00000001 L22,3.00000001 Z M8.00000002,6.00000002 C9.66000004,6.00000002 11,7.34000003 11,9.00000002 C11,10.66 9.66000004,12 8.00000002,12 C6.34000003,12 5.00000002,10.66 5.00000002,9.00000002 C5.00000002,7.34000003 6.34000003,6.00000002 8.00000002,6.00000002 L8.00000002,6.00000002 Z M14,18.0000001 L2.00000001,18.0000001 L2.00000001,17.0000001 C2.00000001,15.0000001 6.00000001,13.9000001 8.00000001,13.9000001 C10,13.9000001 14,15.0000001 14,17.0000001 L14,18.0000001 L14,18.0000001 Z M22.0000001,12 L14.0000001,12 L14.0000001,6.00000002 L22.0000001,6.00000002 L22.0000001,12 L22.0000001,12 Z" id="path-1"></path>
    </defs>
    <g id="Desktop" stroke="none" stroke-width="1" fill="none" fill-rule="evenodd">
        <g id="Accessibility-Hub_D_Tab-3" transform="translate(-756, -3466)">
            <g id="Plan" transform="translate(0, 2480)">
                <g id="Feedback" transform="translate(120, 666)">
                    <g id="Group-2-Copy-3" transform="translate(612, 296)">
                        <g id="Group" transform="translate(24, 24)">
                            <g id="Print" transform="translate(-0, -0)">
                                <polygon id="Base" points="0 0 24.0000001 0 24.0000001 24.0000001 0 24.0000001"></polygon>
                                <mask id="mask-2" fill="white">
                                    <use xlink:href="#path-1"></use>
                                </mask>
                                <g id="Icon" fill-rule="nonzero"></g>
                                <rect id="↳-🎨-Color" fill="#000000" mask="url(#mask-2)" x="4.9999997e-08" y="5.00000397e-08" width="24" height="24"></rect>
                            </g>
                        </g>
                    </g>
                </g>
            </g>
        </g>
    </g>
</svg>